<?xml version="1.0" encoding="utf-8"?>
<!-- Generator: Adobe Illustrator 21.1.0, SVG Export Plug-In . SVG Version: 6.00 Build 0)  -->
<svg version="1.1" id="Warstwa_1" xmlns="http://www.w3.org/2000/svg" xmlns:xlink="http://www.w3.org/1999/xlink" x="0px" y="0px"
	 viewBox="0 0 32 32" style="enable-background:new 0 0 32 32;" xml:space="preserve">
<style type="text/css">
	.st0{fill:transparent;}
</style>
<title>Zasób 101</title>
<g id="Warstwa_2">
	<g id="Warstwa_6">
		<rect class="st0" width="32" height="32"/>
		<g id="Warstwa_1-2">
			<path d="M20.7,21.9l-4.7-4.7l-4.7,4.7C14.1,24.1,18,24.1,20.7,21.9z M15,16.2l-5-5c-2.3,2.9-2.2,6.9,0.2,9.7l4.7-4.7
				C14.9,16.2,15,16.2,15,16.2z M26.9,6.3l-4,4c2.7,3.4,2.6,8.3-0.2,11.6l4.2,4.2C26.9,26.1,26.9,6.3,26.9,6.3z M22,11.2l-5,5
				l4.7,4.7c2.4-2.7,2.5-6.8,0.2-9.7C21.9,11.2,22,11.2,22,11.2z M10.4,22.8l-4,4h19.2l-4-4C18.4,25.5,13.6,25.5,10.4,22.8z
				 M3.2,28.7V3.1h25.6v25.6H3.2z M5.1,26.1l4.2-4.2c-3-3.3-3.1-8.2-0.2-11.6l-4-4V26.1z M16,15.3l5-5c-2.9-2.5-7.1-2.5-10,0
				L16,15.3z M21.9,9.4l4.2-4.2H5.8L10,9.4c3.4-3.1,8.6-3.1,11.9,0H21.9L21.9,9.4z"/>
		</g>
	</g>
</g>
</svg>
