<?xml version="1.0" encoding="utf-8"?>
<!-- Generator: Adobe Illustrator 21.1.0, SVG Export Plug-In . SVG Version: 6.00 Build 0)  -->
<svg version="1.1" id="Warstwa_1" xmlns="http://www.w3.org/2000/svg" xmlns:xlink="http://www.w3.org/1999/xlink" x="0px" y="0px"
	 viewBox="0 0 32 32" style="enable-background:new 0 0 32 32;" xml:space="preserve">
<style type="text/css">
	.st0{fill:transparent;}
</style>
<title>Zasób 98</title>
<g id="Warstwa_2">
	<g id="Warstwa_6">
		<rect class="st0" width="32" height="32"/>
		<g id="Warstwa_1-2">
			<path d="M15.9,2.9l0.8,1.4l3.9,7.1l6.6-6.6l1,1l-6.9,6.9L27.9,25l0.8,1.4h-2.3l1.7,1.8l-1,1l-2.7-2.7h-17l-2.7,2.7l-1-1l1.7-1.7
				H3.3L4.1,25l6.6-12.4L3.9,5.8l1-1l6.5,6.6l3.8-7.1L15.9,2.9L15.9,2.9z M12.7,12.7L16,16l3.2-3.2l-3.3-6.1L12.7,12.7z M16.9,17
				l7.5,7.5h1.1L19.9,14L16.9,17z M22.6,24.5L16,17.9l-6.6,6.6H22.6z M15.1,17l-3-3L6.4,24.5h1.1L15.1,17z"/>
		</g>
	</g>
</g>
</svg>
