<?xml version="1.0" encoding="utf-8"?>
<!-- Generator: Adobe Illustrator 21.1.0, SVG Export Plug-In . SVG Version: 6.00 Build 0)  -->
<svg version="1.1" xmlns="http://www.w3.org/2000/svg" xmlns:xlink="http://www.w3.org/1999/xlink" x="0px" y="0px"
	 viewBox="0 0 32 32" style="enable-background:new 0 0 32 32;" xml:space="preserve">
<style type="text/css">
	.st0{fill:transparent;}
	.st1{display:none;}
	.st2{display:inline;}
	.st3{fill:none;stroke:#000000;stroke-width:1.5;stroke-miterlimit:10;}
	.st4{fill:none;stroke:#000000;stroke-miterlimit:10;}
</style>
<g id="Warstwa_1">
	<rect y="0" class="st0" width="32" height="32"/>
	<path d="M27.5,10.8l-0.3,1c-0.7-0.6-1.7-1.2-2.7-1.2c-0.7,0-1.2,0.3-1.6,0.6L22.7,11c0,0-1.1-1.1-1.8-2.4c-0.5-0.8-1.3-1.7-1.9-2.1
		l0.1-0.8l0-0.5l-0.5-0.2c-0.7-0.3-1.5-0.5-2.2-0.5c-0.6,0-1.1,0.1-1.6,0.3l-0.4,0.2l0,0.5l-0.1,0.6c-0.8,0.5-2.5,2.1-2.3,5.4
		c-0.2,0.2-0.4,0.5-0.6,0.7c-0.6-0.6-1.5-1.4-3.1-1.4c-1.7,0-2.9,0.8-3.6,1.4L4.5,11L3,11.4l4.9,16.2h16.2L29,11.3L27.5,10.8z
		 M12.8,11.6c-0.4-4,2.2-5.2,2.2-5.2l0.1-1c0.4-0.2,0.9-0.2,1.3-0.2c0.6,0,1.3,0.2,1.9,0.4l-0.1,1.2c0.3,0.2,1.5,1.2,2,2.1
		c0.7,1.4,1.9,2.6,1.9,2.6l1.1,1.1c-0.2,0.2-0.6,0.3-0.9,0.3c-0.7,0-1.3-1-1.4-1.4c-1-0.4-1.9-1.1-2.6-2.1c0,0,0,0-0.1,0
		c0,0-0.1,0-0.2,0c-0.2,0.1-0.1,0.2-0.1,0.2c0.4,0.7,0.8,1.1,1.3,1.5c-0.1,0.4-0.2,1.2-0.2,1.2l0.9,4.8c0,0,0.3,1.1-0.3,1.2
		c0,0,0,0-0.1,0c-0.5,0-0.6-1-0.6-1l-1-4.3c0,0-0.2-0.2-0.5-0.2S17,13.1,17,13.1L16.6,18c0,0,0,1.2-0.6,1.2
		c-0.6-0.1-0.4-1.2-0.4-1.2l0.4-4.6c0,0-0.1-0.3-0.4-0.4c0,0-0.1,0-0.1,0c-0.2,0-0.4,0.2-0.4,0.2l-1.8,4.3c0,0-0.2,0.7-0.7,0.7
		c0,0-0.1,0-0.1,0c-0.5-0.2-0.1-1.1-0.1-1.1l1.8-4.4c0,0,0-0.3-0.3-0.4c-0.1,0-0.2,0-0.3,0c-0.1,0-0.2,0-0.2,0l-2,2.5
		c0,0-0.5,0.9-0.9,0.9c-0.1,0-0.1,0-0.2-0.1c-0.4-0.3,0.2-1,0.2-1S12.2,12.4,12.8,11.6z M20.6,12.5c-0.3,0-0.5-0.1-0.8-0.3
		c0-0.1,0-0.2,0-0.3c0.2,0.1,0.3,0.2,0.5,0.3C20.4,12.2,20.5,12.3,20.6,12.5z M23,26.1H9.1L5.1,13.2c0.4-0.4,1.5-1.5,3.2-1.5
		c1.3,0,1.9,0.6,2.5,1.2l0,0c-0.5,0.7-0.9,1.2-0.9,1.2c-0.1,0.1-0.6,0.7-0.5,1.3c0,0.3,0.2,0.6,0.4,0.8c0.2,0.1,0.4,0.2,0.6,0.2
		c0.7,0,1.3-0.7,1.6-1.2l0.7-0.9l-1,2.5c-0.1,0.2-0.3,0.9-0.1,1.5c0.1,0.3,0.3,0.5,0.6,0.6c0.1,0.1,0.3,0.1,0.4,0.1
		c0.7,0,1.2-0.6,1.4-1.2l1.1-2.6l-0.2,2.7c0,0.3-0.1,1,0.2,1.5c0.2,0.3,0.5,0.4,0.8,0.5l0.1,0H16c0.8,0,1.3-0.8,1.3-1.9l0.2-3
		l0.6,2.5c0.1,0.3,0.4,1.6,1.4,1.6c0.1,0,0.1,0,0.2,0c0.3,0,0.6-0.2,0.8-0.5c0.4-0.6,0.2-1.3,0.1-1.6L20,13.4
		c0.2,0.1,0.5,0.1,0.8,0.1c0.2,0,0.5,0,0.7-0.1c0.3,0.2,0.6,0.3,0.9,0.3c0.4,0,1-0.1,1.4-0.5l0.5-0.5l-0.5-0.5L23.6,12
		c0.3-0.2,0.6-0.3,0.9-0.3c0.8,0,1.8,0.7,2.4,1.2L23,26.1z"/>
</g>
<g id="Warstwa_2" class="st1">
	<g class="st2">
		<g>
			<path d="M6.2-31.1c0.6,0,1.3,0.2,1.9,0.4L8-29.5c0.3,0.2,1.5,1.2,2,2.1c0.7,1.4,1.9,2.6,1.9,2.6l1.1,1.1
				c-0.2,0.2-0.6,0.3-0.9,0.3c-0.7,0-1.3-1-1.4-1.4c-1-0.4-1.9-1.1-2.6-2.1c0,0,0,0-0.1,0c0,0-0.1,0-0.2,0c-0.2,0.1-0.1,0.2-0.1,0.2
				C8.1-26,8.5-25.6,9-25.2C8.9-24.8,8.8-24,8.8-24l0.9,4.8c0,0,0.3,1.1-0.3,1.2c0,0,0,0-0.1,0c-0.5,0-0.6-1-0.6-1l-1-4.3
				c0,0-0.2-0.2-0.5-0.2c-0.3,0-0.4,0.3-0.4,0.3l-0.4,4.9c0,0,0,1.2-0.6,1.2c-0.6-0.1-0.4-1.2-0.4-1.2l0.4-4.6c0,0-0.1-0.3-0.4-0.4
				c0,0-0.1,0-0.1,0c-0.2,0-0.4,0.2-0.4,0.2l-1.8,4.3c0,0-0.2,0.7-0.7,0.7c0,0-0.1,0-0.1,0c-0.5-0.2-0.1-1.1-0.1-1.1L4-23.6
				c0,0,0-0.3-0.3-0.4c-0.1,0-0.2,0-0.3,0c-0.1,0-0.2,0-0.2,0l-2,2.5c0,0-0.5,0.9-0.9,0.9c-0.1,0-0.1,0-0.2-0.1
				c-0.4-0.3,0.2-1,0.2-1s1.7-2.2,2.3-3c-0.4-4,2.2-5.2,2.2-5.2l0.1-1C5.3-31,5.7-31.1,6.2-31.1 M6.2-31.9c-0.6,0-1.1,0.1-1.6,0.3
				l-0.4,0.2l0,0.5l-0.1,0.6c-0.8,0.5-2.5,2.1-2.3,5.4c-0.7,0.9-2.1,2.8-2.1,2.8c-0.1,0.1-0.6,0.7-0.5,1.3c0,0.3,0.2,0.6,0.4,0.8
				c0.2,0.1,0.4,0.2,0.6,0.2c0.7,0,1.3-0.7,1.6-1.2l0.7-0.9l-1,2.5c-0.1,0.2-0.3,0.9-0.1,1.5c0.1,0.3,0.3,0.5,0.6,0.6
				c0.1,0.1,0.3,0.1,0.4,0.1c0.7,0,1.2-0.6,1.4-1.2l1.1-2.6l-0.2,2.7c0,0.3-0.1,1,0.2,1.5c0.2,0.3,0.5,0.4,0.8,0.5l0.1,0h0.1
				c0.8,0,1.3-0.8,1.3-1.9l0.2-3l0.6,2.5c0.1,0.3,0.4,1.6,1.4,1.6c0.1,0,0.1,0,0.2,0c0.3,0,0.6-0.2,0.8-0.5c0.4-0.6,0.2-1.3,0.1-1.6
				L9.5-24c0-0.1,0-0.3,0.1-0.5c0.2,0.1,0.3,0.2,0.5,0.3c0.3,0.7,1,1.6,2,1.6c0.4,0,1-0.1,1.4-0.5l0.5-0.5l-0.5-0.5l-1.1-1.1
				c0,0-1.1-1.1-1.8-2.4c-0.5-0.8-1.3-1.7-1.9-2.1l0.1-0.8l0-0.5l-0.5-0.2C7.7-31.7,7-31.9,6.2-31.9L6.2-31.9z"/>
		</g>
		<polyline class="st3" points="-6.5,-25 -1.7,-9.4 13.3,-9.4 18,-25.2 		"/>
		<path class="st4" d="M-5.7-23.2c0,0,1.3-1.9,3.8-1.9S1-23,2.2-23s2.2-2.1,4.3-2.1s2.5,1.8,4,1.8s2.3-1.8,3.8-1.8s3.2,1.8,3.2,1.8"
			/>
	</g>
</g>
</svg>
