<?xml version="1.0" encoding="utf-8"?>
<!-- Generator: Adobe Illustrator 21.1.0, SVG Export Plug-In . SVG Version: 6.00 Build 0)  -->
<svg version="1.1" id="Warstwa_1" xmlns="http://www.w3.org/2000/svg" xmlns:xlink="http://www.w3.org/1999/xlink" x="0px" y="0px"
	 viewBox="0 0 32 32" style="enable-background:new 0 0 32 32;" xml:space="preserve">
<style type="text/css">
	.st0{fill:transparent;}
	.st1{fill:#00A99D;fill-opacity:0;}
</style>
<title>Zasób 120</title>
<g id="Warstwa_2">
	<g id="Warstwa_6">
		<rect class="st0" width="32" height="32"/>
		<g id="Warstwa_1-2">
			<path d="M24.7,6.3l3.1-3.1l1,1l-3.1,3.1c4,5.1,4,12.2,0,17.3l3.1,3.1l-1,1l-3.1-3.1c-4.8,4.8-12.5,4.8-17.3,0.1
				c0,0-0.1-0.1-0.1-0.1l-3.1,3.1l-1-1l3.1-3.1c-4-5.1-4-12.2,0-17.3L3.2,4.3l1-1l3.1,3.1C12.1,1.5,19.8,1.5,24.7,6.3
				C24.6,6.3,24.7,6.3,24.7,6.3z M24.2,8.7L17,16l7.3,7.3C27.5,19,27.5,13,24.2,8.7L24.2,8.7z M16.1,16.9l-7.3,7.3
				c4,4,10.6,4,14.6,0l-7.3-7.3C16.2,16.9,16.1,16.9,16.1,16.9z M7.9,23.1l7.3-7.2L7.9,8.6C4.7,12.9,4.7,18.8,7.9,23.1L7.9,23.1z
				 M16.1,15l7.3-7.3c-4-4-10.6-4-14.6,0L16,15H16.1z"/>
		</g>
		<rect x="28.8" y="28.8" class="st1" width="3.2" height="3.2"/>
	</g>
</g>
</svg>
