<?xml version="1.0" encoding="utf-8"?>
<!-- Generator: Adobe Illustrator 21.1.0, SVG Export Plug-In . SVG Version: 6.00 Build 0)  -->
<svg version="1.1" id="Warstwa_1" xmlns="http://www.w3.org/2000/svg" xmlns:xlink="http://www.w3.org/1999/xlink" x="0px" y="0px"
	 viewBox="0 0 32 32" style="enable-background:new 0 0 32 32;" xml:space="preserve">
<style type="text/css">
	.st0{fill:transparent;}
	.st1{fill:#00A99D;fill-opacity:0;}
</style>
<title>Zasób 117</title>
<g id="Warstwa_2">
	<g id="Warstwa_6">
		<rect class="st0" width="32" height="32"/>
		<g id="Warstwa_1-2">
			<path d="M25.2,15.3h-6.9L17.7,16l6.5,6.5H27C26.7,21.3,25.9,18.3,25.2,15.3z M26.4,7.3l-1.4,1.4l3.5,14.6l0.2,0.6h-0.8h-2.1
				l0.7,0.7l-0.7,0.7L24.2,24c-2.8,0-5.6,0-8.4,0H9.7l-1.4,1.4l-0.7-0.7L8.3,24l-4-0.1H3.4L3.6,23c0,0,2.1-9.2,8.7-9.2h1.8L7.6,7.3
				l0.7-0.7l7.3,7.3h2.9l5-5.1l-8.3,0V7.3l9,0h0.5l0.1,0.3l1-1L26.4,7.3z M23.8,9.9l-4,4h5L23.8,9.9z M17,16.7l-5.7,5.7h4.6h6.9
				L17,16.7z M9.8,22.4l6.5-6.4l-0.7-0.7h-3.3c-4.4,0-6.4,5-7.1,7.1L9.8,22.4L9.8,22.4z"/>
		</g>
		<rect x="28.8" y="28.8" class="st1" width="3.2" height="3.2"/>
	</g>
</g>
</svg>
